<svg xmlns="http://www.w3.org/2000/svg" viewBox="0 0 1440 720">
  <defs>
    <linearGradient id="bg" x1="0%" y1="0%" x2="100%" y2="100%">
      <stop offset="0%" stop-color="#020617" />
      <stop offset="100%" stop-color="#111827" />
    </linearGradient>
    <linearGradient id="glow" x1="0%" y1="0%" x2="100%" y2="0%">
      <stop offset="0%" stop-color="#6366f1" />
      <stop offset="50%" stop-color="#a855f7" />
      <stop offset="100%" stop-color="#14b8a6" />
    </linearGradient>
  </defs>
  <rect width="1440" height="720" fill="url(#bg)" />
  <g filter="url(#blur)">
    <ellipse cx="360" cy="240" rx="340" ry="220" fill="#6366f155" />
    <ellipse cx="1040" cy="520" rx="420" ry="240" fill="#14b8a655" />
  </g>
  <g opacity="0.3" stroke="#1f2937" stroke-width="1">
    <path d="M0 100h1440" />
    <path d="M0 220h1440" />
    <path d="M0 340h1440" />
    <path d="M0 460h1440" />
    <path d="M0 580h1440" />
  </g>
  <g opacity="0.3" stroke="#1f2937" stroke-width="1">
    <path d="M180 0v720" />
    <path d="M420 0v720" />
    <path d="M660 0v720" />
    <path d="M900 0v720" />
    <path d="M1140 0v720" />
  </g>
  <rect
    x="240"
    y="170"
    width="960"
    height="380"
    rx="48"
    fill="#020617dd"
    stroke="url(#glow)"
    stroke-width="2"
  />
  <text
    x="360"
    y="320"
    fill="#f9fafb"
    font-size="64"
    font-family="'Poppins', 'Segoe UI', sans-serif"
  >
    farbasenft
  </text>
  <text
    x="360"
    y="390"
    fill="#e0f2fe"
    font-size="28"
    font-family="'Poppins', 'Segoe UI', sans-serif"
  >
    Curated onchain art, cinematic auctions, community-first.
  </text>
  <rect
    x="360"
    y="430"
    width="240"
    height="60"
    rx="30"
    fill="url(#glow)"
    opacity="0.85"
  />
  <text
    x="384"
    y="468"
    fill="#020617"
    font-size="24"
    font-family="'Poppins', 'Segoe UI', sans-serif"
  >
    Explore the gallery
  </text>
  <defs>
    <filter id="blur">
      <feGaussianBlur stdDeviation="120" />
    </filter>
  </defs>
</svg>


